# xmcd
#
# Track frame offsets: 
#        150
#        28046
#        44463
#        59365
#        87632
#        103091
#        123120
#        141620
#        151697
#        169639
#        189802
#        215887
#
# Disc length: 4440 seconds
#
# Revision: 2
# Processed by: cddbd v1.5.2PL0 Copyright (c) Steve Scherf et al.
# Submitted via: ExactAudioCopyFreeDBPlugin 1.0
#
DISCID=a811560c
DTITLE=Jean-Louis Murat - Lilith [2]
DYEAR=2003
DGENRE=Chanson
TTITLE0=Se mettre aux anges
TTITLE1=Qui est cette fille ?
TTITLE2=Emotion
TTITLE3=Le contentement de la Lady
TTITLE4=Le voleur de rhubarbe
TTITLE5=Le désarmement intérieur
TTITLE6=Elle pleure
TTITLE7=Le salaud
TTITLE8=La nature du genre
TTITLE9=Gel et rosée
TTITLE10=L'absence de vraie vie
TTITLE11=Pistes 12
EXTD=
EXTT0=
EXTT1=
EXTT2=
EXTT3=
EXTT4=
EXTT5=
EXTT6=
EXTT7=
EXTT8=
EXTT9=
EXTT10=
EXTT11=
PLAYORDER=
